<?xml version="1.0" encoding="UTF-8"?>
<svg id="Layer_2" data-name="Layer 2" xmlns="http://www.w3.org/2000/svg" viewBox="0 0 1080 1080">
  <defs>
    <style>
      .cls-1 {
        fill: #2d6b8f;
        stroke: #2d6b8f;
        stroke-miterlimit: 10;
      }
    </style>
  </defs>
  <path class="cls-1" d="M495.48,280.9c-20.75-6.12-48.33-4.21-64.7,18.91-40.03,1.89-65.18,49.59-66.77,85.72-22.92,8.53-38.7,21.19-46.92,37.64-8.42,16.86-8.99,37.91-1.7,62.58-17.24,14.99-27.22,31.25-29.67,48.37-2.49,17.37,2.73,35.8,15.52,54.81-17.02,33.34-8.51,63.39,25.3,89.42.04.03.07.08.12.11,1.07.81,2.1,1.58,3.1,2.33-4.13,27.75-.46,48.95,10.93,63.04,10.09,12.49,26.27,19.53,48.1,20.94,21.22,25.03,41.86,37.23,63.01,37.23.47,0,.95,0,1.42-.02,23.57-.61,46.78-16.62,70.95-48.96l.91-1.22v-444.7c-.01-10.47-11.9-21-29.59-26.21ZM515.94,416.8c-5.53-7.35-11.91-12.14-18.16-16.82-8.06-6.04-16.4-12.29-23.87-24.5-1.32-2.15-4.13-2.83-6.28-1.51-2.15,1.32-2.83,4.13-1.51,6.28,3.02,4.93,6.17,8.99,9.36,12.47-13.88,8.79-25.82,8.98-36.42.62-1.98-1.56-4.85-1.23-6.42.76-1.56,1.98-1.23,4.85.75,6.42,6.92,5.46,14.31,8.19,22.13,8.19,8.4,0,17.31-3.15,26.65-9.44,3.46,3.03,6.88,5.6,10.12,8.03,9.62,7.21,17.95,13.48,23.64,28.62v312.86c-22.05,29.14-42.65,43.56-62.96,44.08-17.03.42-34.72-9.26-52.69-28.84,4.54-1.25,9.4-3.42,14.41-5.66,14.59-6.52,25.45-10.59,32.33-3.55,1.76,1.81,4.66,1.84,6.46.08,1.81-1.76,1.84-4.66.08-6.46-11.86-12.14-28.9-4.53-42.59,1.59-6.55,2.93-13.29,5.93-17.66,5.95l-.08-.09-2.01-.1c-20.14-.97-34.75-6.91-43.44-17.67-9.09-11.25-12.3-28.48-9.61-51.23,12.69,8.76,20.37,11.86,35.63,16.82.47.15.95.23,1.41.23,1.93,0,3.72-1.23,4.34-3.16.78-2.4-.53-4.98-2.93-5.76-15.91-5.17-22.81-8.06-36.97-18.27l.02-.13-2.35-1.65c-33.08-23.23-42.87-48.81-29.79-78.04,12.73,14.27,26.4,21.26,41.63,21.26.27,0,.53,0,.8,0,2.52-.04,4.54-2.12,4.5-4.64-.04-2.5-2.08-4.5-4.57-4.5-.02,0-.05,0-.07,0-.21,0-.42,0-.63,0-14.02,0-26.75-7.54-38.88-23.02l-.02-.02c-24.03-34.17-21.09-64.14,9-91.48,6.96,11.14,17.4,15.9,26.76,20.15,11.82,5.37,22.07,10.04,27.21,25.59-1.45,6.74-1.88,14.34-1.23,22.73.18,2.4,2.19,4.22,4.55,4.22.12,0,.24,0,.36-.01,2.52-.19,4.4-2.39,4.2-4.91-1.45-18.72,2.94-32.6,12.68-40.16,11.12-8.62,29.68-9.3,52.43-2.02,2.55,9.01,14.04,17.11,37.28,26.5.56.23,1.14.33,1.71.33,1.81,0,3.52-1.08,4.24-2.86.95-2.34-.19-5-2.52-5.95-26.11-10.55-31.88-17.62-32.12-21.7-.45-7.7,18.69-18.17,24.98-21.61,2.21-1.21,3.03-3.99,1.81-6.2-1.21-2.21-3.99-3.02-6.2-1.81-12.94,7.08-25.02,14.82-28.64,23.87-25.02-7.58-45.2-6.14-58.57,4.22-4.41,3.42-7.94,7.76-10.59,12.92-7.16-12.08-18-17.01-27.8-21.47-10.54-4.79-19.64-8.94-24.93-20.71-14.06-44.68-1.1-74.34,39.6-90.5,2.06,14.26,8.68,26.03,19.35,34.3,11.75,9.1,28.1,13.83,46.74,13.83,7.99,0,16.4-.87,25.06-2.63,2.47-.5,4.07-2.92,3.56-5.39-.5-2.47-2.92-4.07-5.39-3.56-26.24,5.35-49.7,1.9-64.38-9.47-10.07-7.8-15.58-19.03-16.4-33.36v-.06c.14-30.21,20.39-73.1,52.44-79.17-3.16,8.54-3.36,16.98-.55,24.7,4.21,11.54,15.16,21.34,30.84,27.6.56.22,1.13.33,1.69.33,1.81,0,3.53-1.09,4.24-2.88.94-2.34-.21-5-2.55-5.94-13.23-5.29-22.34-13.19-25.64-22.25-2.53-6.93-1.72-14.52,2.36-22.58l1.17-1.82c13.43-20.8,37.64-22.49,55.82-17.13,14.42,4.25,23.04,12.22,23.04,17.47v109.67Z"/>
  <path class="cls-1" d="M403.01,630.72c1.79-13.01-5.81-28.42-21.91-43.69-1.83-1.74-4.72-1.66-6.46.17-1.74,1.83-1.66,4.72.17,6.46,14.66,13.91,21.36,27.75,18.67,38,0,0,0,0,0,0-.13.31-.22.63-.28.95-.32.99-.73,1.94-1.24,2.85-6.42,11.52-25.79,14.95-49.38,8.75-2.44-.64-4.94.82-5.58,3.26-.64,2.44.82,4.94,3.26,5.58,8.37,2.2,16.34,3.27,23.63,3.27,16.89,0,30.11-5.73,36.05-16.41.09-.15.16-.31.24-.47,42.21,18.05,55.34,30.25,59.28,69.59.24,2.36,2.22,4.11,4.54,4.11.15,0,.31,0,.46-.02,2.51-.25,4.34-2.49,4.09-5-4.61-45.97-23.63-59.59-65.55-77.41Z"/>
  <path class="cls-1" d="M784.33,585.15c10.56-44.59,10.66-74.26.32-90.68-3.54-5.61-8.31-9.72-14.23-12.28,0,0,0,0-.02,0-.74-.37-1.49-.69-2.23-.98,7.12-28.57,5.66-50.75-4.46-67.68-9.12-15.26-24.82-25.52-47.94-31.34-9.18-41.6-18.96-62.29-33.5-71.13-7.65-4.65-16.59-5.81-27.24-3.53-14.37-21.7-53.06-21.46-76.62-15.67-10.57,2.6-23.14,7.36-23.07,15.31v450.94l1.45,1.35c31.02,28.95,56.86,42.63,80.79,42.63,1.75,0,3.49-.07,5.22-.22,19.64-1.65,37.98-13.17,54.54-34.23,20.02-1.03,34.83-7.33,44.04-18.74,11-13.63,14.07-34.03,9.36-62.29,43.77-27.6,55.07-61.71,33.59-101.44ZM743.34,680.42l-2.69,1.63.57,3.1c4.95,27.1,2.68,46.07-6.94,57.99-7.88,9.77-20.73,14.82-39.27,15.43-16.6-.34-28.1-4.95-37.34-8.66-11.64-4.67-21.7-8.71-33.86-.45-2.09,1.42-2.63,4.26-1.21,6.35s4.26,2.63,6.35,1.21c7.8-5.3,13.4-3.41,25.32,1.37,8.22,3.3,18.12,7.26,31.64,8.74-13.81,15.9-28.22,24.3-43.86,25.62-22.29,1.88-46.97-10.4-77.56-38.63v-318.21c5.69-15.14,14.01-21.41,23.64-28.62,3.25-2.43,6.66-5,10.12-8.03,9.34,6.28,18.24,9.43,26.64,9.43,7.83,0,15.22-2.73,22.13-8.19,1.98-1.56,2.32-4.44.75-6.42-1.56-1.98-4.44-2.32-6.42-.76-10.59,8.36-22.53,8.17-36.41-.61,3.19-3.49,6.35-7.55,9.36-12.48,1.32-2.15.64-4.96-1.51-6.28-2.15-1.32-4.96-.64-6.28,1.51-7.48,12.21-15.81,18.46-23.87,24.5-6.25,4.69-12.63,9.47-18.16,16.82v-109.26c2.44-3.34,21.42-10.43,44.6-9.93,10.04.21,26.72,2.14,35.83,11.81.07.14.13.29.22.43,5.99,9.1,8.25,15.86,6.91,20.69-2.06,7.38-12.93,12.55-27.98,19.72-1.36.65-2.76,1.31-4.18,1.99-2.28,1.09-3.24,3.82-2.14,6.1.79,1.64,2.42,2.59,4.12,2.59.66,0,1.34-.14,1.97-.45,1.41-.68,2.8-1.34,4.15-1.98,17.23-8.2,29.68-14.13,32.85-25.52,1.38-4.96.77-10.48-1.92-16.92,7.43-1.27,13.43-.36,18.61,2.79,12.13,7.38,21.36,28.32,29.89,67.91,2.07,13.65-.64,24.5-8.06,32.25-17.61,18.4-56.56,16.36-72.49,14.63-2.52-.27-4.76,1.54-5.04,4.05-.27,2.51,1.54,4.76,4.05,5.04,5.01.54,12.13,1.1,20.22,1.1,19.8,0,45.37-3.35,59.86-18.5,8.18-8.55,11.92-19.74,11.17-33.31,18.67,5.3,31.39,13.89,38.74,26.19,8.73,14.6,9.83,35.16,3.34,61.11-23.34-.72-45.32,29.7-58.58,48.81-12.37-15.01-39.59-21.78-72.96-18.07-2.1-9.98-10.66-19.97-27.35-23.7-2.46-.55-4.91,1-5.45,3.46-.55,2.46,1,4.9,3.46,5.45,15.11,3.37,21.28,12.85,20.69,20.74-.58,7.85-8.27,17.51-28,18.91-2.52.18-4.41,2.36-4.24,4.88.17,2.41,2.18,4.25,4.55,4.25.11,0,.22,0,.33-.01,23.69-1.68,34.06-13.88,36.13-24.8,31.59-3.63,58.42,3,67.4,16.89,5.57,8.61,4.28,19.56-3.85,32.55-1.34,2.14-.69,4.96,1.45,6.3.75.47,1.59.7,2.42.7,1.52,0,3.01-.76,3.88-2.15,10.12-16.16,9.85-28.31,6.65-36.7.28-.41.57-.82.86-1.25,12.11-17.51,33.61-48.56,53.24-47.01l1.81.39c6.78,1.44,11.78,4.85,15.28,10.4,8.91,14.14,8.34,42.58-1.68,84.54-10.28,14.36-25.34,21.69-46.04,22.34-2.52.08-4.5,2.19-4.42,4.71.08,2.47,2.11,4.42,4.56,4.42.05,0,.1,0,.15,0,20.92-.67,37.43-7.77,49.19-21.12,16,33.83,4.39,62.08-35.35,86.19Z"/>
  <path class="cls-1" d="M733.1,646.31c-26.7,3.67-44.16.71-49.17-8.33-.45-.81-.8-1.68-1.06-2.61-.03-.16-.05-.33-.1-.49-.02-.06-.05-.11-.07-.17-2.24-9.73,5.17-25.37,21.31-44.69,1.62-1.94,1.36-4.82-.58-6.44-1.94-1.62-4.82-1.36-6.44.58-16.71,20-24.67,36.38-23.78,48.87-47.02,15.25-68.16,42.15-62.8,79.99.32,2.28,2.28,3.93,4.52,3.93.21,0,.43-.02.65-.05,2.5-.35,4.24-2.67,3.88-5.16-4.69-33.15,13.7-56.04,56.18-69.9.09.18.18.37.28.55,5.38,9.71,17.77,14.59,36.96,14.59,6.4,0,13.55-.54,21.44-1.63,2.5-.34,4.25-2.65,3.9-5.15-.34-2.5-2.65-4.24-5.15-3.9Z"/>
</svg>