<?xml version="1.0" encoding="UTF-8"?>
<svg id="Layer_2" data-name="Layer 2" xmlns="http://www.w3.org/2000/svg" viewBox="0 0 1080 1080">
  <defs>
    <style>
      .cls-1 {
        fill: #001f30;
        stroke-width: 0px;
      }
    </style>
  </defs>
  <path class="cls-1" d="M849.76,592.37l77.61-20.07c5.45-27.08,4.22-56.14-1.88-86.66l-79.48-16.76c-5.56-24.05-13.91-47.02-24.63-68.59h.02l51.01-61.84c-11.51-25.11-29.59-47.9-52.47-69.01l-74.21,33.19c-18.33-15.88-38.52-29.68-60.22-41.03h.04l4.9-80.03c-24.07-13.54-52.1-21.36-83-25l-40.53,70.47h.02c-8.88-.73-17.85-1.13-26.92-1.13-15.61,0-30.94,1.15-45.94,3.36l.04-.04-43.07-67.62c-27.43,3.2-54.7,13.34-81.84,28.56l8.63,80.81c-20.94,12.65-40.26,27.69-57.64,44.7v-.13l-74.56-29.39c-20.32,18.71-36.4,42.95-49.42,71.22l54.44,60.27c-9.38,22.15-16.26,45.61-20.36,70.01l-.04-.05-77.61,20.07c-5.45,27.08-4.22,56.14,1.88,86.66l79.48,16.76c5.56,24.05,13.91,47.02,24.63,68.59h-.02l-51.01,61.84c11.51,25.11,29.59,47.9,52.47,69.01l74.21-33.19c18.33,15.88,38.52,29.68,60.22,41.03h-.04l-4.9,80.03c24.07,13.54,52.1,21.36,83,25l40.53-70.47h-.02c8.88.73,17.85,1.13,26.92,1.13,15.61,0,30.94-1.15,45.94-3.36l-.04.04,43.07,67.62c27.43-3.2,54.7-13.34,81.84-28.56l-8.63-80.81c20.94-12.65,40.26-27.69,57.64-44.7v.13l74.56,29.39c20.32-18.71,36.4-42.95,49.42-71.22l-54.44-60.27c9.38-22.15,16.26-45.61,20.36-70.01l.04.05Z"/>
</svg>